<?xml version="1.0" encoding="UTF-8"?>
<svg xmlns="http://www.w3.org/2000/svg" viewBox="0 0 390 844" width="390" height="844">
  <defs>
    <symbol id="icon-bell" viewBox="0 0 24 24" fill="none" stroke="currentColor" stroke-width="2" stroke-linecap="round" stroke-linejoin="round">
      <path d="M6 8a6 6 0 0 1 12 0c0 7 3 9 3 9H3s3-2 3-9"/>
      <path d="M10.3 21a1.94 1.94 0 0 0 3.4 0"/>
    </symbol>
    <symbol id="icon-mic" viewBox="0 0 24 24" fill="none" stroke="currentColor" stroke-width="2" stroke-linecap="round" stroke-linejoin="round">
      <path d="M12 2a3 3 0 0 0-3 3v7a3 3 0 0 0 6 0V5a3 3 0 0 0-3-3Z"/>
      <path d="M19 10v2a7 7 0 0 1-14 0v-2"/>
      <line x1="12" x2="12" y1="19" y2="22"/>
    </symbol>
    <symbol id="icon-home" viewBox="0 0 24 24" fill="none" stroke="currentColor" stroke-width="2" stroke-linecap="round" stroke-linejoin="round">
      <path d="m3 9 9-7 9 7v11a2 2 0 0 1-2 2H5a2 2 0 0 1-2-2z"/>
      <polyline points="9 22 9 12 15 12 15 22"/>
    </symbol>
    <symbol id="icon-calendar" viewBox="0 0 24 24" fill="none" stroke="currentColor" stroke-width="2" stroke-linecap="round" stroke-linejoin="round">
      <rect width="18" height="18" x="3" y="4" rx="2" ry="2"/>
      <line x1="16" x2="16" y1="2" y2="6"/>
      <line x1="8" x2="8" y1="2" y2="6"/>
      <line x1="3" x2="21" y1="10" y2="10"/>
    </symbol>
    <symbol id="icon-bar-chart" viewBox="0 0 24 24" fill="none" stroke="currentColor" stroke-width="2" stroke-linecap="round" stroke-linejoin="round">
      <line x1="12" x2="12" y1="20" y2="10"/>
      <line x1="18" x2="18" y1="20" y2="4"/>
      <line x1="6" x2="6" y1="20" y2="16"/>
    </symbol>
    <symbol id="icon-message-circle" viewBox="0 0 24 24" fill="none" stroke="currentColor" stroke-width="2" stroke-linecap="round" stroke-linejoin="round">
      <path d="M7.9 20A9 9 0 1 0 4 16.1L2 22Z"/>
    </symbol>
    <symbol id="icon-menu" viewBox="0 0 24 24" fill="none" stroke="currentColor" stroke-width="2" stroke-linecap="round" stroke-linejoin="round">
      <line x1="4" x2="20" y1="12" y2="12"/>
      <line x1="4" x2="20" y1="6" y2="6"/>
      <line x1="4" x2="20" y1="18" y2="18"/>
    </symbol>
    <symbol id="icon-pill" viewBox="0 0 24 24" fill="none" stroke="currentColor" stroke-width="2" stroke-linecap="round" stroke-linejoin="round">
      <path d="m10.5 1.5 3 3L4 14l-3-3a2.83 2.83 0 0 1 4-4l5.5-5.5Z"/>
      <path d="m7.5 4.5 3 3"/>
      <path d="m10.5 1.5 9.5 9.5a2.83 2.83 0 0 1-4 4l-9.5-9.5"/>
    </symbol>
    <symbol id="icon-utensils" viewBox="0 0 24 24" fill="none" stroke="currentColor" stroke-width="2" stroke-linecap="round" stroke-linejoin="round">
      <path d="M3 2v7c0 1.1.9 2 2 2h4a2 2 0 0 0 2-2V2"/>
      <path d="M7 2v20"/>
      <path d="M21 15V2v0a5 5 0 0 0-5 5v6c0 1.1.9 2 2 2h3Zm0 0v7"/>
    </symbol>
    <symbol id="icon-leaf" viewBox="0 0 24 24" fill="none" stroke="currentColor" stroke-width="2" stroke-linecap="round" stroke-linejoin="round">
      <path d="M11 20A7 7 0 0 1 9.8 6.9C15.5 4.9 17 3.5 19 2c1 2 2 4.5 2 8 0 5.5-4.8 10-10 10Z"/>
      <path d="M2 21c0-3 1.9-5.5 4.5-6.5"/>
    </symbol>
    <symbol id="icon-file-text" viewBox="0 0 24 24" fill="none" stroke="currentColor" stroke-width="2" stroke-linecap="round" stroke-linejoin="round">
      <path d="M14.5 2H6a2 2 0 0 0-2 2v16a2 2 0 0 0 2 2h12a2 2 0 0 0 2-2V7.5L14.5 2z"/>
      <polyline points="14 2 14 8 20 8"/>
      <line x1="16" x2="8" y1="13" y2="13"/>
      <line x1="16" x2="8" y1="17" y2="17"/>
    </symbol>
    <symbol id="icon-alert-triangle" viewBox="0 0 24 24" fill="none" stroke="currentColor" stroke-width="2" stroke-linecap="round" stroke-linejoin="round">
      <path d="m21.73 18-8-14a2 2 0 0 0-3.48 0l-8 14A2 2 0 0 0 4 21h16a2 2 0 0 0 1.73-3Z"/>
      <line x1="12" x2="12" y1="9" y2="13"/>
      <line x1="12" x2="12.01" y1="17" y2="17"/>
    </symbol>
    <symbol id="icon-refresh-cw" viewBox="0 0 24 24" fill="none" stroke="currentColor" stroke-width="2" stroke-linecap="round" stroke-linejoin="round">
      <path d="M3 12a9 9 0 0 1 9-9 9.75 9.75 0 0 1 6.74 2.74L21 8"/>
      <path d="M21 3v5h-5"/>
      <path d="M21 12a9 9 0 0 1-9 9 9.75 9.75 0 0 1-6.74-2.74L3 16"/>
      <path d="M3 21v-5h5"/>
    </symbol>
    <symbol id="icon-check" viewBox="0 0 24 24" fill="none" stroke="currentColor" stroke-width="2.5" stroke-linecap="round" stroke-linejoin="round">
      <polyline points="20 6 9 17 4 12"/>
    </symbol>
    <symbol id="icon-x" viewBox="0 0 24 24" fill="none" stroke="currentColor" stroke-width="2.5" stroke-linecap="round" stroke-linejoin="round">
      <path d="M18 6 6 18"/>
      <path d="m6 6 12 12"/>
    </symbol>
  </defs>

  <!-- Background -->
  <rect width="390" height="844" fill="#FAFAF8"/>

  <!-- PWA Status Bar -->
  <rect width="390" height="44" fill="#FAFAF8"/>
  <text x="195" y="28" font-family="-apple-system, BlinkMacSystemFont, 'Segoe UI', sans-serif" font-size="12" fill="#64748B" text-anchor="middle">9:41 AM</text>
  <rect x="340" y="22" width="20" height="10" rx="2" fill="none" stroke="#64748B" stroke-width="1"/>
  <rect x="342" y="24" width="14" height="6" rx="1" fill="#64748B"/>
  <rect x="361" y="25" width="2" height="4" rx="1" fill="#64748B"/>

  <!-- ====== HEADER ====== -->
  <rect y="44" width="390" height="52" fill="#FAFAF8"/>
  <text x="20" y="76" font-family="-apple-system, BlinkMacSystemFont, 'Segoe UI', sans-serif" font-size="17" font-weight="600" fill="#1E40AF">MyGuide</text>

  <!-- Agency badge -->
  <rect x="92" y="62" width="78" height="22" rx="11" fill="#EFF6FF" stroke="#BFDBFE" stroke-width="1"/>
  <text x="131" y="77" font-family="-apple-system, sans-serif" font-size="10" font-weight="500" fill="#1E40AF" text-anchor="middle">SunnyCare</text>

  <!-- Bell + Avatar -->
  <use href="#icon-bell" x="318" y="58" width="20" height="20" color="#475569"/>
  <circle cx="334" cy="62" r="7" fill="#EF4444"/>
  <text x="334" y="65" font-family="-apple-system, sans-serif" font-size="9" fill="#FFFFFF" text-anchor="middle" font-weight="600">3</text>
  <circle cx="366" cy="70" r="16" fill="#DBEAFE" stroke="#BFDBFE" stroke-width="1"/>
  <text x="366" y="75" font-family="-apple-system, sans-serif" font-size="12" font-weight="600" fill="#1E40AF" text-anchor="middle">MJ</text>

  <line x1="16" y1="96" x2="374" y2="96" stroke="#E2E8F0" stroke-width="0.5"/>

  <!-- ====== GREETING + SHIFT ====== -->
  <text x="195" y="130" font-family="-apple-system, BlinkMacSystemFont, sans-serif" font-size="22" font-weight="600" fill="#1E293B" text-anchor="middle">Hi Maria</text>
  <text x="195" y="152" font-family="-apple-system, sans-serif" font-size="14" fill="#64748B" text-anchor="middle">Morning Shift · 7:00 AM – 3:00 PM</text>

  <!-- ====== ELDER SELECTOR ====== -->
  <text x="20" y="184" font-family="-apple-system, sans-serif" font-size="11" font-weight="600" fill="#94A3B8" letter-spacing="1">YOUR ELDERS TODAY</text>

  <!-- Elder 1 - Active -->
  <rect x="20" y="194" width="108" height="38" rx="19" fill="#3B82F6"/>
  <circle cx="42" cy="213" r="11" fill="#FFFFFF" opacity="0.25"/>
  <text x="42" y="217" font-family="-apple-system, sans-serif" font-size="10" font-weight="600" fill="#FFFFFF" text-anchor="middle">RL</text>
  <text x="82" y="218" font-family="-apple-system, sans-serif" font-size="13" font-weight="500" fill="#FFFFFF" text-anchor="middle">Rod L.</text>

  <!-- Elder 2 -->
  <rect x="136" y="194" width="112" height="38" rx="19" fill="#FFFFFF" stroke="#E2E8F0" stroke-width="1"/>
  <circle cx="158" cy="213" r="11" fill="#DBEAFE"/>
  <text x="158" y="217" font-family="-apple-system, sans-serif" font-size="10" font-weight="600" fill="#3B82F6" text-anchor="middle">ES</text>
  <text x="204" y="218" font-family="-apple-system, sans-serif" font-size="13" font-weight="500" fill="#475569" text-anchor="middle">Edna S.</text>

  <!-- Elder 3 -->
  <rect x="256" y="194" width="118" height="38" rx="19" fill="#FFFFFF" stroke="#E2E8F0" stroke-width="1"/>
  <circle cx="278" cy="213" r="11" fill="#DBEAFE"/>
  <text x="278" y="217" font-family="-apple-system, sans-serif" font-size="10" font-weight="600" fill="#3B82F6" text-anchor="middle">JW</text>
  <text x="328" y="218" font-family="-apple-system, sans-serif" font-size="13" font-weight="500" fill="#475569" text-anchor="middle">James W.</text>

  <!-- ====== PRIORITY CARD ====== -->
  <rect x="20" y="250" width="350" height="128" rx="16" fill="#FFFFFF" stroke="#FCA5A5" stroke-width="1.5"/>

  <circle cx="38" cy="274" r="5" fill="#EF4444"/>
  <text x="52" y="278" font-family="-apple-system, sans-serif" font-size="11" font-weight="600" fill="#DC2626">OVERDUE — Rod Laver</text>

  <use href="#icon-pill" x="36" y="290" width="18" height="18" color="#1E40AF"/>
  <text x="60" y="304" font-family="-apple-system, sans-serif" font-size="16" font-weight="600" fill="#1E293B">Morning Meds (15 min late)</text>
  <text x="36" y="326" font-family="-apple-system, sans-serif" font-size="13" fill="#64748B">Lisinopril 10mg · Metformin 500mg</text>

  <!-- Buttons -->
  <rect x="36" y="344" width="140" height="24" rx="12" fill="#16A34A"/>
  <use href="#icon-check" x="50" y="348" width="14" height="14" color="#FFFFFF"/>
  <text x="108" y="360" font-family="-apple-system, sans-serif" font-size="12" font-weight="600" fill="#FFFFFF" text-anchor="middle">Given</text>

  <rect x="184" y="344" width="140" height="24" rx="12" fill="#FFFFFF" stroke="#DC2626" stroke-width="1.5"/>
  <use href="#icon-x" x="198" y="348" width="14" height="14" color="#DC2626"/>
  <text x="258" y="360" font-family="-apple-system, sans-serif" font-size="12" font-weight="500" fill="#DC2626" text-anchor="middle">Not given</text>

  <!-- ====== VOICE INPUT ====== -->
  <rect x="20" y="394" width="350" height="48" rx="24" fill="#FFFFFF" stroke="#CBD5E1" stroke-width="1.5"/>
  <text x="48" y="423" font-family="-apple-system, sans-serif" font-size="14" fill="#94A3B8">Say or type what happened...</text>
  <circle cx="346" cy="418" r="18" fill="#3B82F6"/>
  <use href="#icon-mic" x="337" y="409" width="18" height="18" color="#FFFFFF"/>

  <!-- ====== QUICK ACTIONS ====== -->
  <text x="20" y="470" font-family="-apple-system, sans-serif" font-size="11" font-weight="600" fill="#94A3B8" letter-spacing="1">QUICK ACTIONS</text>

  <!-- Row 1 -->
  <rect x="20" y="482" width="165" height="36" rx="18" fill="#F8FAFC" stroke="#E2E8F0" stroke-width="1"/>
  <use href="#icon-pill" x="32" y="492" width="14" height="14" color="#475569"/>
  <text x="52" y="505" font-family="-apple-system, sans-serif" font-size="12" fill="#475569">Log medications</text>

  <rect x="193" y="482" width="140" height="36" rx="18" fill="#F8FAFC" stroke="#E2E8F0" stroke-width="1"/>
  <use href="#icon-utensils" x="205" y="492" width="14" height="14" color="#475569"/>
  <text x="225" y="505" font-family="-apple-system, sans-serif" font-size="12" fill="#475569">Log a meal</text>

  <!-- Row 2 -->
  <rect x="20" y="526" width="145" height="36" rx="18" fill="#F8FAFC" stroke="#E2E8F0" stroke-width="1"/>
  <use href="#icon-leaf" x="32" y="536" width="14" height="14" color="#475569"/>
  <text x="52" y="549" font-family="-apple-system, sans-serif" font-size="12" fill="#475569">Supplements</text>

  <rect x="173" y="526" width="135" height="36" rx="18" fill="#F8FAFC" stroke="#E2E8F0" stroke-width="1"/>
  <use href="#icon-file-text" x="185" y="536" width="14" height="14" color="#475569"/>
  <text x="205" y="549" font-family="-apple-system, sans-serif" font-size="12" fill="#475569">Add a note</text>

  <!-- Row 3 - Agency specific -->
  <rect x="20" y="570" width="160" height="36" rx="18" fill="#EFF6FF" stroke="#BFDBFE" stroke-width="1"/>
  <use href="#icon-refresh-cw" x="32" y="580" width="14" height="14" color="#1E40AF"/>
  <text x="52" y="593" font-family="-apple-system, sans-serif" font-size="12" fill="#1E40AF">Shift handoff</text>

  <rect x="188" y="570" width="175" height="36" rx="18" fill="#FEF3C7" stroke="#FCD34D" stroke-width="1"/>
  <use href="#icon-alert-triangle" x="200" y="580" width="14" height="14" color="#92400E"/>
  <text x="220" y="593" font-family="-apple-system, sans-serif" font-size="12" fill="#92400E">2 alerts to review</text>

  <!-- ====== SHIFT PROGRESS ====== -->
  <text x="20" y="636" font-family="-apple-system, sans-serif" font-size="11" font-weight="600" fill="#94A3B8" letter-spacing="1">SHIFT PROGRESS</text>

  <rect x="20" y="648" width="350" height="60" rx="12" fill="#FFFFFF" stroke="#E2E8F0" stroke-width="1"/>
  <text x="36" y="670" font-family="-apple-system, sans-serif" font-size="13" font-weight="500" fill="#1E293B">4 of 12 tasks done across 3 elders</text>
  <rect x="36" y="680" width="318" height="6" rx="3" fill="#E2E8F0"/>
  <rect x="36" y="680" width="106" height="6" rx="3" fill="#3B82F6"/>
  <text x="36" y="700" font-family="-apple-system, sans-serif" font-size="10" fill="#94A3B8">Rod: 1/4 · Edna: 2/5 · James: 1/3</text>

  <!-- ====== COMING UP ====== -->
  <text x="20" y="738" font-family="-apple-system, sans-serif" font-size="11" font-weight="600" fill="#94A3B8" letter-spacing="1">NEXT</text>

  <circle cx="32" cy="756" r="3" fill="#3B82F6"/>
  <text x="44" y="760" font-family="-apple-system, sans-serif" font-size="12" fill="#475569">Edna's breakfast</text>
  <text x="354" y="760" font-family="-apple-system, sans-serif" font-size="11" fill="#94A3B8" text-anchor="end">Soon</text>

  <!-- ====== BOTTOM NAV ====== -->
  <rect x="0" y="776" width="390" height="68" fill="#FFFFFF"/>
  <line x1="0" y1="776" x2="390" y2="776" stroke="#E2E8F0" stroke-width="1"/>

  <!-- Home - Active -->
  <rect x="18" y="782" width="38" height="3" rx="1.5" fill="#3B82F6"/>
  <use href="#icon-home" x="26" y="792" width="20" height="20" color="#3B82F6"/>
  <text x="36" y="826" font-family="-apple-system, sans-serif" font-size="9" font-weight="500" fill="#3B82F6" text-anchor="middle">Home</text>

  <!-- Schedule -->
  <use href="#icon-calendar" x="102" y="792" width="20" height="20" color="#94A3B8"/>
  <text x="112" y="826" font-family="-apple-system, sans-serif" font-size="9" fill="#94A3B8" text-anchor="middle">Schedule</text>

  <!-- Reports -->
  <use href="#icon-bar-chart" x="185" y="792" width="20" height="20" color="#94A3B8"/>
  <text x="195" y="826" font-family="-apple-system, sans-serif" font-size="9" fill="#94A3B8" text-anchor="middle">Reports</text>

  <!-- Ask AI -->
  <use href="#icon-message-circle" x="265" y="792" width="20" height="20" color="#94A3B8"/>
  <text x="275" y="826" font-family="-apple-system, sans-serif" font-size="9" fill="#94A3B8" text-anchor="middle">Ask AI</text>

  <!-- More -->
  <use href="#icon-menu" x="342" y="792" width="20" height="20" color="#94A3B8"/>
  <text x="352" y="826" font-family="-apple-system, sans-serif" font-size="9" fill="#94A3B8" text-anchor="middle">More</text>

  <!-- PWA Home indicator -->
  <rect x="140" y="836" width="110" height="4" rx="2" fill="#1E293B" opacity="0.2"/>
</svg>