<?xml version="1.0" encoding="UTF-8"?>
<svg xmlns="http://www.w3.org/2000/svg" viewBox="0 0 390 844" width="390" height="844">
  <defs>
    <symbol id="icon-bell" viewBox="0 0 24 24" fill="none" stroke="currentColor" stroke-width="2" stroke-linecap="round" stroke-linejoin="round">
      <path d="M6 8a6 6 0 0 1 12 0c0 7 3 9 3 9H3s3-2 3-9"/>
      <path d="M10.3 21a1.94 1.94 0 0 0 3.4 0"/>
    </symbol>
    <symbol id="icon-mic" viewBox="0 0 24 24" fill="none" stroke="currentColor" stroke-width="2" stroke-linecap="round" stroke-linejoin="round">
      <path d="M12 2a3 3 0 0 0-3 3v7a3 3 0 0 0 6 0V5a3 3 0 0 0-3-3Z"/>
      <path d="M19 10v2a7 7 0 0 1-14 0v-2"/>
      <line x1="12" x2="12" y1="19" y2="22"/>
    </symbol>
    <symbol id="icon-home" viewBox="0 0 24 24" fill="none" stroke="currentColor" stroke-width="2" stroke-linecap="round" stroke-linejoin="round">
      <path d="m3 9 9-7 9 7v11a2 2 0 0 1-2 2H5a2 2 0 0 1-2-2z"/>
      <polyline points="9 22 9 12 15 12 15 22"/>
    </symbol>
    <symbol id="icon-calendar" viewBox="0 0 24 24" fill="none" stroke="currentColor" stroke-width="2" stroke-linecap="round" stroke-linejoin="round">
      <rect width="18" height="18" x="3" y="4" rx="2" ry="2"/>
      <line x1="16" x2="16" y1="2" y2="6"/>
      <line x1="8" x2="8" y1="2" y2="6"/>
      <line x1="3" x2="21" y1="10" y2="10"/>
    </symbol>
    <symbol id="icon-bar-chart" viewBox="0 0 24 24" fill="none" stroke="currentColor" stroke-width="2" stroke-linecap="round" stroke-linejoin="round">
      <line x1="12" x2="12" y1="20" y2="10"/>
      <line x1="18" x2="18" y1="20" y2="4"/>
      <line x1="6" x2="6" y1="20" y2="16"/>
    </symbol>
    <symbol id="icon-message-circle" viewBox="0 0 24 24" fill="none" stroke="currentColor" stroke-width="2" stroke-linecap="round" stroke-linejoin="round">
      <path d="M7.9 20A9 9 0 1 0 4 16.1L2 22Z"/>
    </symbol>
    <symbol id="icon-menu" viewBox="0 0 24 24" fill="none" stroke="currentColor" stroke-width="2" stroke-linecap="round" stroke-linejoin="round">
      <line x1="4" x2="20" y1="12" y2="12"/>
      <line x1="4" x2="20" y1="6" y2="6"/>
      <line x1="4" x2="20" y1="18" y2="18"/>
    </symbol>
    <symbol id="icon-pill" viewBox="0 0 24 24" fill="none" stroke="currentColor" stroke-width="2" stroke-linecap="round" stroke-linejoin="round">
      <path d="m10.5 1.5 3 3L4 14l-3-3a2.83 2.83 0 0 1 4-4l5.5-5.5Z"/>
      <path d="m7.5 4.5 3 3"/>
      <path d="m10.5 1.5 9.5 9.5a2.83 2.83 0 0 1-4 4l-9.5-9.5"/>
    </symbol>
    <symbol id="icon-utensils" viewBox="0 0 24 24" fill="none" stroke="currentColor" stroke-width="2" stroke-linecap="round" stroke-linejoin="round">
      <path d="M3 2v7c0 1.1.9 2 2 2h4a2 2 0 0 0 2-2V2"/>
      <path d="M7 2v20"/>
      <path d="M21 15V2v0a5 5 0 0 0-5 5v6c0 1.1.9 2 2 2h3Zm0 0v7"/>
    </symbol>
    <symbol id="icon-leaf" viewBox="0 0 24 24" fill="none" stroke="currentColor" stroke-width="2" stroke-linecap="round" stroke-linejoin="round">
      <path d="M11 20A7 7 0 0 1 9.8 6.9C15.5 4.9 17 3.5 19 2c1 2 2 4.5 2 8 0 5.5-4.8 10-10 10Z"/>
      <path d="M2 21c0-3 1.9-5.5 4.5-6.5"/>
    </symbol>
    <symbol id="icon-file-text" viewBox="0 0 24 24" fill="none" stroke="currentColor" stroke-width="2" stroke-linecap="round" stroke-linejoin="round">
      <path d="M14.5 2H6a2 2 0 0 0-2 2v16a2 2 0 0 0 2 2h12a2 2 0 0 0 2-2V7.5L14.5 2z"/>
      <polyline points="14 2 14 8 20 8"/>
      <line x1="16" x2="8" y1="13" y2="13"/>
      <line x1="16" x2="8" y1="17" y2="17"/>
    </symbol>
    <symbol id="icon-mail" viewBox="0 0 24 24" fill="none" stroke="currentColor" stroke-width="2" stroke-linecap="round" stroke-linejoin="round">
      <rect width="20" height="16" x="2" y="4" rx="2"/>
      <path d="m22 7-8.97 5.7a1.94 1.94 0 0 1-2.06 0L2 7"/>
    </symbol>
    <symbol id="icon-check" viewBox="0 0 24 24" fill="none" stroke="currentColor" stroke-width="2.5" stroke-linecap="round" stroke-linejoin="round">
      <polyline points="20 6 9 17 4 12"/>
    </symbol>
    <symbol id="icon-x" viewBox="0 0 24 24" fill="none" stroke="currentColor" stroke-width="2.5" stroke-linecap="round" stroke-linejoin="round">
      <path d="M18 6 6 18"/>
      <path d="m6 6 12 12"/>
    </symbol>
    <symbol id="icon-check-circle" viewBox="0 0 24 24" fill="none" stroke="currentColor" stroke-width="2" stroke-linecap="round" stroke-linejoin="round">
      <path d="M22 11.08V12a10 10 0 1 1-5.93-9.14"/>
      <polyline points="22 4 12 14.01 9 11.01"/>
    </symbol>
    <symbol id="icon-file-down" viewBox="0 0 24 24" fill="none" stroke="currentColor" stroke-width="2" stroke-linecap="round" stroke-linejoin="round">
      <path d="M14.5 2H6a2 2 0 0 0-2 2v16a2 2 0 0 0 2 2h12a2 2 0 0 0 2-2V7.5L14.5 2z"/>
      <polyline points="14 2 14 8 20 8"/>
      <path d="M12 18v-6"/>
      <path d="m9 15 3 3 3-3"/>
    </symbol>
    <symbol id="icon-refresh-cw" viewBox="0 0 24 24" fill="none" stroke="currentColor" stroke-width="2" stroke-linecap="round" stroke-linejoin="round">
      <path d="M3 12a9 9 0 0 1 9-9 9.75 9.75 0 0 1 6.74 2.74L21 8"/>
      <path d="M21 3v5h-5"/>
      <path d="M21 12a9 9 0 0 1-9 9 9.75 9.75 0 0 1-6.74-2.74L3 16"/>
      <path d="M3 21v-5h5"/>
    </symbol>
    <symbol id="icon-bell-ring" viewBox="0 0 24 24" fill="none" stroke="currentColor" stroke-width="2" stroke-linecap="round" stroke-linejoin="round">
      <path d="M6 8a6 6 0 0 1 12 0c0 7 3 9 3 9H3s3-2 3-9"/>
      <path d="M10.3 21a1.94 1.94 0 0 0 3.4 0"/>
      <path d="M4 2C2.8 3.7 2 5.7 2 8"/>
      <path d="M22 8c0-2.3-.8-4.3-2-6"/>
    </symbol>
  </defs>

  <!-- Background -->
  <rect width="390" height="844" fill="#FAFAF8"/>

  <!-- PWA Status Bar -->
  <rect width="390" height="44" fill="#FAFAF8"/>
  <text x="195" y="28" font-family="-apple-system, BlinkMacSystemFont, 'Segoe UI', sans-serif" font-size="12" fill="#64748B" text-anchor="middle">9:41 AM</text>
  <rect x="340" y="22" width="20" height="10" rx="2" fill="none" stroke="#64748B" stroke-width="1"/>
  <rect x="342" y="24" width="14" height="6" rx="1" fill="#64748B"/>
  <rect x="361" y="25" width="2" height="4" rx="1" fill="#64748B"/>

  <!-- ====== HEADER ====== -->
  <rect y="44" width="390" height="52" fill="#FAFAF8"/>
  <text x="20" y="76" font-family="-apple-system, BlinkMacSystemFont, 'Segoe UI', sans-serif" font-size="17" font-weight="600" fill="#1E40AF">MyGuide</text>

  <!-- Agency badge -->
  <rect x="92" y="62" width="85" height="22" rx="11" fill="#EFF6FF" stroke="#BFDBFE" stroke-width="1"/>
  <text x="134" y="77" font-family="-apple-system, sans-serif" font-size="10" font-weight="500" fill="#1E40AF" text-anchor="middle">SunnyCare</text>

  <!-- Bell (FCM push) + Avatar -->
  <use href="#icon-bell" x="318" y="58" width="20" height="20" color="#475569"/>
  <circle cx="334" cy="62" r="7" fill="#EF4444"/>
  <text x="334" y="65" font-family="-apple-system, sans-serif" font-size="9" fill="#FFFFFF" text-anchor="middle" font-weight="600">2</text>
  <circle cx="366" cy="70" r="16" fill="#DBEAFE" stroke="#BFDBFE" stroke-width="1"/>
  <text x="366" y="75" font-family="-apple-system, sans-serif" font-size="12" font-weight="600" fill="#1E40AF" text-anchor="middle">MJ</text>

  <line x1="16" y1="96" x2="374" y2="96" stroke="#E2E8F0" stroke-width="0.5"/>

  <!-- ====== GREETING ====== -->
  <text x="195" y="128" font-family="-apple-system, BlinkMacSystemFont, sans-serif" font-size="22" font-weight="600" fill="#1E293B" text-anchor="middle">Hi Maria</text>
  <text x="195" y="148" font-family="-apple-system, sans-serif" font-size="14" fill="#64748B" text-anchor="middle">Morning Shift · 7:00 AM – 3:00 PM</text>

  <!-- ====== YOUR 3 ELDERS ====== -->
  <text x="20" y="178" font-family="-apple-system, sans-serif" font-size="11" font-weight="600" fill="#94A3B8" letter-spacing="1">YOUR ELDERS (3)</text>

  <!-- Elder 1 - Active/Selected -->
  <rect x="20" y="190" width="350" height="72" rx="14" fill="#FFFFFF" stroke="#3B82F6" stroke-width="1.5"/>
  <circle cx="48" cy="226" r="18" fill="#DBEAFE"/>
  <text x="48" y="231" font-family="-apple-system, sans-serif" font-size="12" font-weight="600" fill="#1E40AF" text-anchor="middle">RL</text>
  <text x="76" y="218" font-family="-apple-system, sans-serif" font-size="14" font-weight="600" fill="#1E293B">Rod Laver</text>
  <text x="76" y="236" font-family="-apple-system, sans-serif" font-size="12" fill="#64748B">86 yrs · 2 meds due now</text>
  <!-- Member emails -->
  <use href="#icon-mail" x="76" y="244" width="12" height="12" color="#94A3B8"/>
  <text x="92" y="254" font-family="-apple-system, sans-serif" font-size="10" fill="#94A3B8">sarah.l@gmail.com, mike.l@yahoo.com</text>
  <!-- Active indicator -->
  <rect x="310" y="214" width="48" height="20" rx="10" fill="#EFF6FF"/>
  <text x="334" y="228" font-family="-apple-system, sans-serif" font-size="10" font-weight="500" fill="#3B82F6" text-anchor="middle">Active</text>

  <!-- Elder 2 -->
  <rect x="20" y="270" width="350" height="72" rx="14" fill="#FFFFFF" stroke="#E2E8F0" stroke-width="1"/>
  <circle cx="48" cy="306" r="18" fill="#DBEAFE"/>
  <text x="48" y="311" font-family="-apple-system, sans-serif" font-size="12" font-weight="600" fill="#1E40AF" text-anchor="middle">ES</text>
  <text x="76" y="298" font-family="-apple-system, sans-serif" font-size="14" font-weight="600" fill="#1E293B">Edna Sullivan</text>
  <text x="76" y="316" font-family="-apple-system, sans-serif" font-size="12" fill="#64748B">79 yrs · Breakfast pending</text>
  <use href="#icon-mail" x="76" y="324" width="12" height="12" color="#94A3B8"/>
  <text x="92" y="334" font-family="-apple-system, sans-serif" font-size="10" fill="#94A3B8">john.s@gmail.com, ann.s@outlook.com</text>

  <!-- Elder 3 -->
  <rect x="20" y="350" width="350" height="72" rx="14" fill="#FFFFFF" stroke="#E2E8F0" stroke-width="1"/>
  <circle cx="48" cy="386" r="18" fill="#DBEAFE"/>
  <text x="48" y="391" font-family="-apple-system, sans-serif" font-size="12" font-weight="600" fill="#1E40AF" text-anchor="middle">JW</text>
  <text x="76" y="378" font-family="-apple-system, sans-serif" font-size="14" font-weight="600" fill="#1E293B">James Wilson</text>
  <text x="76" y="396" font-family="-apple-system, sans-serif" font-size="12" fill="#64748B">82 yrs · All tasks done</text>
  <use href="#icon-mail" x="76" y="404" width="12" height="12" color="#94A3B8"/>
  <text x="92" y="414" font-family="-apple-system, sans-serif" font-size="10" fill="#94A3B8">betty.w@gmail.com, carl.w@aol.com</text>
  <!-- Completed badge -->
  <use href="#icon-check-circle" x="338" y="380" width="18" height="18" color="#16A34A"/>

  <!-- ====== END OF DAY REPORTS ====== -->
  <text x="20" y="452" font-family="-apple-system, sans-serif" font-size="11" font-weight="600" fill="#94A3B8" letter-spacing="1">END OF DAY PDF REPORTS</text>

  <rect x="20" y="464" width="350" height="62" rx="12" fill="#F0FDF4" stroke="#BBF7D0" stroke-width="1"/>
  <use href="#icon-file-down" x="32" y="478" width="18" height="18" color="#16A34A"/>
  <text x="56" y="490" font-family="-apple-system, sans-serif" font-size="13" font-weight="500" fill="#1E293B">Auto-sent daily to member emails</text>
  <text x="56" y="510" font-family="-apple-system, sans-serif" font-size="11" fill="#64748B">Meds, diet, supplements &amp; notes · 6 recipients total</text>

  <!-- ====== VOICE INPUT ====== -->
  <rect x="20" y="544" width="350" height="48" rx="24" fill="#FFFFFF" stroke="#CBD5E1" stroke-width="1.5"/>
  <text x="48" y="573" font-family="-apple-system, sans-serif" font-size="14" fill="#94A3B8">Say or type what happened...</text>
  <circle cx="346" cy="568" r="18" fill="#3B82F6"/>
  <use href="#icon-mic" x="337" y="559" width="18" height="18" color="#FFFFFF"/>

  <!-- ====== QUICK ACTIONS ====== -->
  <text x="20" y="618" font-family="-apple-system, sans-serif" font-size="11" font-weight="600" fill="#94A3B8" letter-spacing="1">QUICK ACTIONS</text>

  <!-- Row 1 -->
  <rect x="20" y="630" width="165" height="36" rx="18" fill="#F8FAFC" stroke="#E2E8F0" stroke-width="1"/>
  <use href="#icon-pill" x="32" y="640" width="14" height="14" color="#475569"/>
  <text x="52" y="653" font-family="-apple-system, sans-serif" font-size="12" fill="#475569">Log medications</text>

  <rect x="193" y="630" width="140" height="36" rx="18" fill="#F8FAFC" stroke="#E2E8F0" stroke-width="1"/>
  <use href="#icon-utensils" x="205" y="640" width="14" height="14" color="#475569"/>
  <text x="225" y="653" font-family="-apple-system, sans-serif" font-size="12" fill="#475569">Log a meal</text>

  <!-- Row 2 -->
  <rect x="20" y="674" width="145" height="36" rx="18" fill="#F8FAFC" stroke="#E2E8F0" stroke-width="1"/>
  <use href="#icon-leaf" x="32" y="684" width="14" height="14" color="#475569"/>
  <text x="52" y="697" font-family="-apple-system, sans-serif" font-size="12" fill="#475569">Supplements</text>

  <rect x="173" y="674" width="135" height="36" rx="18" fill="#F8FAFC" stroke="#E2E8F0" stroke-width="1"/>
  <use href="#icon-file-text" x="185" y="684" width="14" height="14" color="#475569"/>
  <text x="205" y="697" font-family="-apple-system, sans-serif" font-size="12" fill="#475569">Add a note</text>

  <!-- Row 3 -->
  <rect x="20" y="718" width="160" height="36" rx="18" fill="#EFF6FF" stroke="#BFDBFE" stroke-width="1"/>
  <use href="#icon-refresh-cw" x="32" y="728" width="14" height="14" color="#1E40AF"/>
  <text x="52" y="741" font-family="-apple-system, sans-serif" font-size="12" fill="#1E40AF">Shift handoff</text>

  <rect x="188" y="718" width="175" height="36" rx="18" fill="#F8FAFC" stroke="#E2E8F0" stroke-width="1"/>
  <use href="#icon-bell-ring" x="200" y="728" width="14" height="14" color="#475569"/>
  <text x="220" y="741" font-family="-apple-system, sans-serif" font-size="12" fill="#475569">FCM notifications</text>

  <!-- ====== BOTTOM NAV ====== -->
  <rect x="0" y="776" width="390" height="68" fill="#FFFFFF"/>
  <line x1="0" y1="776" x2="390" y2="776" stroke="#E2E8F0" stroke-width="1"/>

  <!-- Home - Active -->
  <rect x="18" y="782" width="38" height="3" rx="1.5" fill="#3B82F6"/>
  <use href="#icon-home" x="26" y="792" width="20" height="20" color="#3B82F6"/>
  <text x="36" y="826" font-family="-apple-system, sans-serif" font-size="9" font-weight="500" fill="#3B82F6" text-anchor="middle">Home</text>

  <!-- Schedule -->
  <use href="#icon-calendar" x="102" y="792" width="20" height="20" color="#94A3B8"/>
  <text x="112" y="826" font-family="-apple-system, sans-serif" font-size="9" fill="#94A3B8" text-anchor="middle">Schedule</text>

  <!-- Reports -->
  <use href="#icon-bar-chart" x="185" y="792" width="20" height="20" color="#94A3B8"/>
  <text x="195" y="826" font-family="-apple-system, sans-serif" font-size="9" fill="#94A3B8" text-anchor="middle">Reports</text>

  <!-- Ask AI -->
  <use href="#icon-message-circle" x="265" y="792" width="20" height="20" color="#94A3B8"/>
  <text x="275" y="826" font-family="-apple-system, sans-serif" font-size="9" fill="#94A3B8" text-anchor="middle">Ask AI</text>

  <!-- More -->
  <use href="#icon-menu" x="342" y="792" width="20" height="20" color="#94A3B8"/>
  <text x="352" y="826" font-family="-apple-system, sans-serif" font-size="9" fill="#94A3B8" text-anchor="middle">More</text>

  <!-- PWA Home indicator -->
  <rect x="140" y="836" width="110" height="4" rx="2" fill="#1E293B" opacity="0.2"/>
</svg>