<?xml version="1.0" encoding="UTF-8"?>
<svg xmlns="http://www.w3.org/2000/svg" viewBox="0 0 390 844" width="390" height="844">
  <defs>
    <!-- Reusable icon definitions (Lucide-style, 24x24 viewBox) -->
    <symbol id="icon-bell" viewBox="0 0 24 24" fill="none" stroke="currentColor" stroke-width="2" stroke-linecap="round" stroke-linejoin="round">
      <path d="M6 8a6 6 0 0 1 12 0c0 7 3 9 3 9H3s3-2 3-9"/>
      <path d="M10.3 21a1.94 1.94 0 0 0 3.4 0"/>
    </symbol>
    <symbol id="icon-mic" viewBox="0 0 24 24" fill="none" stroke="currentColor" stroke-width="2" stroke-linecap="round" stroke-linejoin="round">
      <path d="M12 2a3 3 0 0 0-3 3v7a3 3 0 0 0 6 0V5a3 3 0 0 0-3-3Z"/>
      <path d="M19 10v2a7 7 0 0 1-14 0v-2"/>
      <line x1="12" x2="12" y1="19" y2="22"/>
    </symbol>
    <symbol id="icon-home" viewBox="0 0 24 24" fill="none" stroke="currentColor" stroke-width="2" stroke-linecap="round" stroke-linejoin="round">
      <path d="m3 9 9-7 9 7v11a2 2 0 0 1-2 2H5a2 2 0 0 1-2-2z"/>
      <polyline points="9 22 9 12 15 12 15 22"/>
    </symbol>
    <symbol id="icon-bar-chart" viewBox="0 0 24 24" fill="none" stroke="currentColor" stroke-width="2" stroke-linecap="round" stroke-linejoin="round">
      <line x1="12" x2="12" y1="20" y2="10"/>
      <line x1="18" x2="18" y1="20" y2="4"/>
      <line x1="6" x2="6" y1="20" y2="16"/>
    </symbol>
    <symbol id="icon-message-circle" viewBox="0 0 24 24" fill="none" stroke="currentColor" stroke-width="2" stroke-linecap="round" stroke-linejoin="round">
      <path d="M7.9 20A9 9 0 1 0 4 16.1L2 22Z"/>
    </symbol>
    <symbol id="icon-menu" viewBox="0 0 24 24" fill="none" stroke="currentColor" stroke-width="2" stroke-linecap="round" stroke-linejoin="round">
      <line x1="4" x2="20" y1="12" y2="12"/>
      <line x1="4" x2="20" y1="6" y2="6"/>
      <line x1="4" x2="20" y1="18" y2="18"/>
    </symbol>
    <symbol id="icon-pill" viewBox="0 0 24 24" fill="none" stroke="currentColor" stroke-width="2" stroke-linecap="round" stroke-linejoin="round">
      <path d="m10.5 1.5 3 3L4 14l-3-3a2.83 2.83 0 0 1 4-4l5.5-5.5Z"/>
      <path d="m7.5 4.5 3 3"/>
      <path d="m10.5 1.5 9.5 9.5a2.83 2.83 0 0 1-4 4l-9.5-9.5"/>
    </symbol>
    <symbol id="icon-utensils" viewBox="0 0 24 24" fill="none" stroke="currentColor" stroke-width="2" stroke-linecap="round" stroke-linejoin="round">
      <path d="M3 2v7c0 1.1.9 2 2 2h4a2 2 0 0 0 2-2V2"/>
      <path d="M7 2v20"/>
      <path d="M21 15V2v0a5 5 0 0 0-5 5v6c0 1.1.9 2 2 2h3Zm0 0v7"/>
    </symbol>
    <symbol id="icon-leaf" viewBox="0 0 24 24" fill="none" stroke="currentColor" stroke-width="2" stroke-linecap="round" stroke-linejoin="round">
      <path d="M11 20A7 7 0 0 1 9.8 6.9C15.5 4.9 17 3.5 19 2c1 2 2 4.5 2 8 0 5.5-4.8 10-10 10Z"/>
      <path d="M2 21c0-3 1.9-5.5 4.5-6.5"/>
    </symbol>
    <symbol id="icon-file-text" viewBox="0 0 24 24" fill="none" stroke="currentColor" stroke-width="2" stroke-linecap="round" stroke-linejoin="round">
      <path d="M14.5 2H6a2 2 0 0 0-2 2v16a2 2 0 0 0 2 2h12a2 2 0 0 0 2-2V7.5L14.5 2z"/>
      <polyline points="14 2 14 8 20 8"/>
      <line x1="16" x2="8" y1="13" y2="13"/>
      <line x1="16" x2="8" y1="17" y2="17"/>
      <line x1="10" x2="8" y1="9" y2="9"/>
    </symbol>
    <symbol id="icon-alert-triangle" viewBox="0 0 24 24" fill="none" stroke="currentColor" stroke-width="2" stroke-linecap="round" stroke-linejoin="round">
      <path d="m21.73 18-8-14a2 2 0 0 0-3.48 0l-8 14A2 2 0 0 0 4 21h16a2 2 0 0 0 1.73-3Z"/>
      <line x1="12" x2="12" y1="9" y2="13"/>
      <line x1="12" x2="12.01" y1="17" y2="17"/>
    </symbol>
    <symbol id="icon-stethoscope" viewBox="0 0 24 24" fill="none" stroke="currentColor" stroke-width="2" stroke-linecap="round" stroke-linejoin="round">
      <path d="M4.8 2.3A.3.3 0 1 0 5 2H4a2 2 0 0 0-2 2v5a6 6 0 0 0 6 6v0a6 6 0 0 0 6-6V4a2 2 0 0 0-2-2h-1a.2.2 0 1 0 .3.3"/>
      <path d="M8 15v1a6 6 0 0 0 6 6v0a6 6 0 0 0 6-6v-4"/>
      <circle cx="20" cy="10" r="2"/>
    </symbol>
    <symbol id="icon-check" viewBox="0 0 24 24" fill="none" stroke="currentColor" stroke-width="2.5" stroke-linecap="round" stroke-linejoin="round">
      <polyline points="20 6 9 17 4 12"/>
    </symbol>
    <symbol id="icon-x" viewBox="0 0 24 24" fill="none" stroke="currentColor" stroke-width="2.5" stroke-linecap="round" stroke-linejoin="round">
      <path d="M18 6 6 18"/>
      <path d="m6 6 12 12"/>
    </symbol>
  </defs>

  <!-- Background -->
  <rect width="390" height="844" fill="#FAFAF8"/>

  <!-- ====== PWA STATUS BAR AREA ====== -->
  <rect width="390" height="44" fill="#FAFAF8"/>
  <text x="195" y="28" font-family="-apple-system, BlinkMacSystemFont, 'Segoe UI', sans-serif" font-size="12" fill="#64748B" text-anchor="middle">9:41 AM</text>
  <!-- Battery/signal indicators -->
  <rect x="340" y="22" width="20" height="10" rx="2" fill="none" stroke="#64748B" stroke-width="1"/>
  <rect x="342" y="24" width="14" height="6" rx="1" fill="#64748B"/>
  <rect x="361" y="25" width="2" height="4" rx="1" fill="#64748B"/>

  <!-- ====== HEADER - Ultra Minimal ====== -->
  <rect y="44" width="390" height="52" fill="#FAFAF8"/>

  <!-- Logo -->
  <text x="20" y="76" font-family="-apple-system, BlinkMacSystemFont, 'Segoe UI', sans-serif" font-size="17" font-weight="600" fill="#1E40AF">MyGuide</text>

  <!-- Notification bell -->
  <use href="#icon-bell" x="318" y="58" width="20" height="20" color="#475569"/>
  <!-- Badge -->
  <circle cx="334" cy="62" r="7" fill="#EF4444"/>
  <text x="334" y="65" font-family="-apple-system, sans-serif" font-size="9" fill="#FFFFFF" text-anchor="middle" font-weight="600">1</text>

  <!-- Elder avatar -->
  <circle cx="366" cy="70" r="16" fill="#DBEAFE" stroke="#BFDBFE" stroke-width="1"/>
  <text x="366" y="75" font-family="-apple-system, sans-serif" font-size="12" font-weight="600" fill="#1E40AF" text-anchor="middle">RL</text>

  <!-- Divider -->
  <line x1="16" y1="96" x2="374" y2="96" stroke="#E2E8F0" stroke-width="0.5"/>

  <!-- ====== GREETING ====== -->
  <text x="195" y="138" font-family="-apple-system, BlinkMacSystemFont, 'Segoe UI', sans-serif" font-size="24" font-weight="600" fill="#1E293B" text-anchor="middle">Hi Maria</text>
  <text x="195" y="162" font-family="-apple-system, sans-serif" font-size="15" fill="#64748B" text-anchor="middle">Caring for Rod Laver · Morning Shift</text>

  <!-- ====== PRIORITY ACTION CARD ====== -->
  <rect x="20" y="186" width="350" height="148" rx="16" fill="#FFFFFF" stroke="#E2E8F0" stroke-width="1"/>
  <!-- Subtle shadow -->
  <rect x="22" y="189" width="350" height="148" rx="16" fill="none" stroke="#0000000A" stroke-width="3"/>

  <!-- Urgent badge -->
  <circle cx="38" cy="214" r="5" fill="#EF4444"/>
  <text x="52" y="218" font-family="-apple-system, sans-serif" font-size="12" font-weight="600" fill="#DC2626">DUE NOW</text>

  <!-- Pill icon + Task -->
  <use href="#icon-pill" x="36" y="232" width="20" height="20" color="#1E40AF"/>
  <text x="62" y="248" font-family="-apple-system, sans-serif" font-size="17" font-weight="600" fill="#1E293B">Morning Medications</text>
  <text x="36" y="274" font-family="-apple-system, sans-serif" font-size="14" fill="#64748B">Lisinopril 10mg · Metformin 500mg</text>

  <!-- Action buttons -->
  <rect x="36" y="294" width="150" height="28" rx="14" fill="#16A34A"/>
  <use href="#icon-check" x="54" y="300" width="16" height="16" color="#FFFFFF"/>
  <text x="120" y="313" font-family="-apple-system, sans-serif" font-size="13" font-weight="600" fill="#FFFFFF" text-anchor="middle">Given</text>

  <rect x="196" y="294" width="150" height="28" rx="14" fill="#FFFFFF" stroke="#DC2626" stroke-width="1.5"/>
  <use href="#icon-x" x="214" y="300" width="16" height="16" color="#DC2626"/>
  <text x="280" y="313" font-family="-apple-system, sans-serif" font-size="13" font-weight="500" fill="#DC2626" text-anchor="middle">Not given</text>

  <!-- ====== VOICE/TEXT INPUT ====== -->
  <rect x="20" y="354" width="350" height="52" rx="26" fill="#FFFFFF" stroke="#CBD5E1" stroke-width="1.5"/>
  <text x="52" y="385" font-family="-apple-system, sans-serif" font-size="15" fill="#94A3B8">Say or type what happened...</text>

  <!-- Mic button -->
  <circle cx="346" cy="380" r="20" fill="#3B82F6"/>
  <use href="#icon-mic" x="336" y="370" width="20" height="20" color="#FFFFFF"/>

  <!-- ====== QUICK ACTIONS ====== -->
  <text x="20" y="436" font-family="-apple-system, sans-serif" font-size="11" font-weight="600" fill="#94A3B8" letter-spacing="1">QUICK ACTIONS</text>

  <!-- Row 1 -->
  <rect x="20" y="450" width="168" height="40" rx="20" fill="#F8FAFC" stroke="#E2E8F0" stroke-width="1"/>
  <use href="#icon-pill" x="34" y="462" width="16" height="16" color="#475569"/>
  <text x="56" y="475" font-family="-apple-system, sans-serif" font-size="13" fill="#475569">Log medications</text>

  <rect x="196" y="450" width="148" height="40" rx="20" fill="#F8FAFC" stroke="#E2E8F0" stroke-width="1"/>
  <use href="#icon-utensils" x="210" y="462" width="16" height="16" color="#475569"/>
  <text x="232" y="475" font-family="-apple-system, sans-serif" font-size="13" fill="#475569">Log a meal</text>

  <!-- Row 2 -->
  <rect x="20" y="498" width="155" height="40" rx="20" fill="#F8FAFC" stroke="#E2E8F0" stroke-width="1"/>
  <use href="#icon-leaf" x="34" y="510" width="16" height="16" color="#475569"/>
  <text x="56" y="523" font-family="-apple-system, sans-serif" font-size="13" fill="#475569">Supplements</text>

  <rect x="183" y="498" width="145" height="40" rx="20" fill="#F8FAFC" stroke="#E2E8F0" stroke-width="1"/>
  <use href="#icon-file-text" x="197" y="510" width="16" height="16" color="#475569"/>
  <text x="219" y="523" font-family="-apple-system, sans-serif" font-size="13" fill="#475569">Add a note</text>

  <!-- Row 3 -->
  <rect x="20" y="546" width="175" height="40" rx="20" fill="#FEF3C7" stroke="#FCD34D" stroke-width="1"/>
  <use href="#icon-alert-triangle" x="34" y="558" width="16" height="16" color="#92400E"/>
  <text x="56" y="571" font-family="-apple-system, sans-serif" font-size="13" fill="#92400E">1 alert to review</text>

  <rect x="203" y="546" width="160" height="40" rx="20" fill="#F8FAFC" stroke="#E2E8F0" stroke-width="1"/>
  <use href="#icon-stethoscope" x="217" y="558" width="16" height="16" color="#475569"/>
  <text x="239" y="571" font-family="-apple-system, sans-serif" font-size="13" fill="#475569">Ask a question</text>

  <!-- ====== COMING UP ====== -->
  <text x="20" y="618" font-family="-apple-system, sans-serif" font-size="11" font-weight="600" fill="#94A3B8" letter-spacing="1">COMING UP</text>

  <rect x="20" y="630" width="350" height="108" rx="14" fill="#FFFFFF" stroke="#E2E8F0" stroke-width="1"/>

  <!-- Item 1 -->
  <circle cx="40" cy="656" r="4" fill="#3B82F6"/>
  <text x="56" y="660" font-family="-apple-system, sans-serif" font-size="14" fill="#1E293B">Log breakfast</text>
  <text x="340" y="660" font-family="-apple-system, sans-serif" font-size="12" fill="#94A3B8" text-anchor="end">When ready</text>
  <line x1="56" y1="674" x2="354" y2="674" stroke="#F1F5F9" stroke-width="1"/>

  <!-- Item 2 -->
  <circle cx="40" cy="694" r="4" fill="#94A3B8"/>
  <text x="56" y="698" font-family="-apple-system, sans-serif" font-size="14" fill="#1E293B">Vitamin D supplement</text>
  <text x="340" y="698" font-family="-apple-system, sans-serif" font-size="12" fill="#94A3B8" text-anchor="end">10:00 AM</text>
  <line x1="56" y1="712" x2="354" y2="712" stroke="#F1F5F9" stroke-width="1"/>

  <!-- Item 3 -->
  <circle cx="40" cy="726" r="4" fill="#94A3B8"/>
  <text x="56" y="730" font-family="-apple-system, sans-serif" font-size="14" fill="#1E293B">Afternoon medications</text>
  <text x="340" y="730" font-family="-apple-system, sans-serif" font-size="12" fill="#94A3B8" text-anchor="end">2:00 PM</text>

  <!-- ====== BOTTOM NAV (PWA safe area aware) ====== -->
  <rect x="0" y="776" width="390" height="68" fill="#FFFFFF"/>
  <line x1="0" y1="776" x2="390" y2="776" stroke="#E2E8F0" stroke-width="1"/>

  <!-- Home - Active -->
  <rect x="32" y="782" width="46" height="3" rx="1.5" fill="#3B82F6"/>
  <use href="#icon-home" x="43" y="792" width="22" height="22" color="#3B82F6"/>
  <text x="54" y="828" font-family="-apple-system, sans-serif" font-size="10" font-weight="500" fill="#3B82F6" text-anchor="middle">Home</text>

  <!-- Reports -->
  <use href="#icon-bar-chart" x="134" y="792" width="22" height="22" color="#94A3B8"/>
  <text x="145" y="828" font-family="-apple-system, sans-serif" font-size="10" fill="#94A3B8" text-anchor="middle">Reports</text>

  <!-- Ask AI -->
  <use href="#icon-message-circle" x="234" y="792" width="22" height="22" color="#94A3B8"/>
  <text x="245" y="828" font-family="-apple-system, sans-serif" font-size="10" fill="#94A3B8" text-anchor="middle">Ask AI</text>

  <!-- More -->
  <use href="#icon-menu" x="324" y="792" width="22" height="22" color="#94A3B8"/>
  <text x="335" y="828" font-family="-apple-system, sans-serif" font-size="10" fill="#94A3B8" text-anchor="middle">More</text>

  <!-- PWA Home indicator bar -->
  <rect x="140" y="836" width="110" height="4" rx="2" fill="#1E293B" opacity="0.2"/>
</svg>