<?xml version="1.0" encoding="UTF-8"?>
<svg xmlns="http://www.w3.org/2000/svg" viewBox="0 0 1280 800" width="1280" height="800">
  <defs>
    <symbol id="icon-bell" viewBox="0 0 24 24" fill="none" stroke="currentColor" stroke-width="2" stroke-linecap="round" stroke-linejoin="round">
      <path d="M6 8a6 6 0 0 1 12 0c0 7 3 9 3 9H3s3-2 3-9"/>
      <path d="M10.3 21a1.94 1.94 0 0 0 3.4 0"/>
    </symbol>
    <symbol id="icon-mic" viewBox="0 0 24 24" fill="none" stroke="currentColor" stroke-width="2" stroke-linecap="round" stroke-linejoin="round">
      <path d="M12 2a3 3 0 0 0-3 3v7a3 3 0 0 0 6 0V5a3 3 0 0 0-3-3Z"/>
      <path d="M19 10v2a7 7 0 0 1-14 0v-2"/>
      <line x1="12" x2="12" y1="19" y2="22"/>
    </symbol>
    <symbol id="icon-home" viewBox="0 0 24 24" fill="none" stroke="currentColor" stroke-width="2" stroke-linecap="round" stroke-linejoin="round">
      <path d="m3 9 9-7 9 7v11a2 2 0 0 1-2 2H5a2 2 0 0 1-2-2z"/>
      <polyline points="9 22 9 12 15 12 15 22"/>
    </symbol>
    <symbol id="icon-calendar" viewBox="0 0 24 24" fill="none" stroke="currentColor" stroke-width="2" stroke-linecap="round" stroke-linejoin="round">
      <rect width="18" height="18" x="3" y="4" rx="2" ry="2"/>
      <line x1="16" x2="16" y1="2" y2="6"/>
      <line x1="8" x2="8" y1="2" y2="6"/>
      <line x1="3" x2="21" y1="10" y2="10"/>
    </symbol>
    <symbol id="icon-bar-chart" viewBox="0 0 24 24" fill="none" stroke="currentColor" stroke-width="2" stroke-linecap="round" stroke-linejoin="round">
      <line x1="12" x2="12" y1="20" y2="10"/>
      <line x1="18" x2="18" y1="20" y2="4"/>
      <line x1="6" x2="6" y1="20" y2="16"/>
    </symbol>
    <symbol id="icon-message-circle" viewBox="0 0 24 24" fill="none" stroke="currentColor" stroke-width="2" stroke-linecap="round" stroke-linejoin="round">
      <path d="M7.9 20A9 9 0 1 0 4 16.1L2 22Z"/>
    </symbol>
    <symbol id="icon-alert-triangle" viewBox="0 0 24 24" fill="none" stroke="currentColor" stroke-width="2" stroke-linecap="round" stroke-linejoin="round">
      <path d="m21.73 18-8-14a2 2 0 0 0-3.48 0l-8 14A2 2 0 0 0 4 21h16a2 2 0 0 0 1.73-3Z"/>
      <line x1="12" x2="12" y1="9" y2="13"/>
      <line x1="12" x2="12.01" y1="17" y2="17"/>
    </symbol>
    <symbol id="icon-settings" viewBox="0 0 24 24" fill="none" stroke="currentColor" stroke-width="2" stroke-linecap="round" stroke-linejoin="round">
      <path d="M12.22 2h-.44a2 2 0 0 0-2 2v.18a2 2 0 0 1-1 1.73l-.43.25a2 2 0 0 1-2 0l-.15-.08a2 2 0 0 0-2.73.73l-.22.38a2 2 0 0 0 .73 2.73l.15.1a2 2 0 0 1 1 1.72v.51a2 2 0 0 1-1 1.74l-.15.09a2 2 0 0 0-.73 2.73l.22.38a2 2 0 0 0 2.73.73l.15-.08a2 2 0 0 1 2 0l.43.25a2 2 0 0 1 1 1.73V20a2 2 0 0 0 2 2h.44a2 2 0 0 0 2-2v-.18a2 2 0 0 1 1-1.73l.43-.25a2 2 0 0 1 2 0l.15.08a2 2 0 0 0 2.73-.73l.22-.39a2 2 0 0 0-.73-2.73l-.15-.08a2 2 0 0 1-1-1.74v-.5a2 2 0 0 1 1-1.74l.15-.09a2 2 0 0 0 .73-2.73l-.22-.38a2 2 0 0 0-2.73-.73l-.15.08a2 2 0 0 1-2 0l-.43-.25a2 2 0 0 1-1-1.73V4a2 2 0 0 0-2-2z"/>
      <circle cx="12" cy="12" r="3"/>
    </symbol>
    <symbol id="icon-pill" viewBox="0 0 24 24" fill="none" stroke="currentColor" stroke-width="2" stroke-linecap="round" stroke-linejoin="round">
      <path d="m10.5 1.5 3 3L4 14l-3-3a2.83 2.83 0 0 1 4-4l5.5-5.5Z"/>
      <path d="m7.5 4.5 3 3"/>
      <path d="m10.5 1.5 9.5 9.5a2.83 2.83 0 0 1-4 4l-9.5-9.5"/>
    </symbol>
    <symbol id="icon-utensils" viewBox="0 0 24 24" fill="none" stroke="currentColor" stroke-width="2" stroke-linecap="round" stroke-linejoin="round">
      <path d="M3 2v7c0 1.1.9 2 2 2h4a2 2 0 0 0 2-2V2"/>
      <path d="M7 2v20"/>
      <path d="M21 15V2v0a5 5 0 0 0-5 5v6c0 1.1.9 2 2 2h3Zm0 0v7"/>
    </symbol>
    <symbol id="icon-leaf" viewBox="0 0 24 24" fill="none" stroke="currentColor" stroke-width="2" stroke-linecap="round" stroke-linejoin="round">
      <path d="M11 20A7 7 0 0 1 9.8 6.9C15.5 4.9 17 3.5 19 2c1 2 2 4.5 2 8 0 5.5-4.8 10-10 10Z"/>
      <path d="M2 21c0-3 1.9-5.5 4.5-6.5"/>
    </symbol>
    <symbol id="icon-file-text" viewBox="0 0 24 24" fill="none" stroke="currentColor" stroke-width="2" stroke-linecap="round" stroke-linejoin="round">
      <path d="M14.5 2H6a2 2 0 0 0-2 2v16a2 2 0 0 0 2 2h12a2 2 0 0 0 2-2V7.5L14.5 2z"/>
      <polyline points="14 2 14 8 20 8"/>
      <line x1="16" x2="8" y1="13" y2="13"/>
      <line x1="16" x2="8" y1="17" y2="17"/>
    </symbol>
    <symbol id="icon-stethoscope" viewBox="0 0 24 24" fill="none" stroke="currentColor" stroke-width="2" stroke-linecap="round" stroke-linejoin="round">
      <path d="M4.8 2.3A.3.3 0 1 0 5 2H4a2 2 0 0 0-2 2v5a6 6 0 0 0 6 6v0a6 6 0 0 0 6-6V4a2 2 0 0 0-2-2h-1a.2.2 0 1 0 .3.3"/>
      <path d="M8 15v1a6 6 0 0 0 6 6v0a6 6 0 0 0 6-6v-4"/>
      <circle cx="20" cy="10" r="2"/>
    </symbol>
    <symbol id="icon-check" viewBox="0 0 24 24" fill="none" stroke="currentColor" stroke-width="2.5" stroke-linecap="round" stroke-linejoin="round">
      <polyline points="20 6 9 17 4 12"/>
    </symbol>
    <symbol id="icon-x" viewBox="0 0 24 24" fill="none" stroke="currentColor" stroke-width="2.5" stroke-linecap="round" stroke-linejoin="round">
      <path d="M18 6 6 18"/>
      <path d="m6 6 12 12"/>
    </symbol>
  </defs>

  <!-- Background -->
  <rect width="1280" height="800" fill="#FAFAF8"/>

  <!-- ====== LEFT ICON RAIL (56px, like Claude.ai) ====== -->
  <rect x="0" y="0" width="56" height="800" fill="#FFFFFF"/>
  <line x1="56" y1="0" x2="56" y2="800" stroke="#E2E8F0" stroke-width="1"/>

  <!-- Logo mark -->
  <circle cx="28" cy="32" r="16" fill="#EFF6FF"/>
  <text x="28" y="38" font-family="-apple-system, sans-serif" font-size="11" font-weight="700" fill="#1E40AF" text-anchor="middle">MG</text>

  <!-- Home - Active -->
  <rect x="12" y="68" width="32" height="32" rx="8" fill="#EFF6FF"/>
  <use href="#icon-home" x="18" y="74" width="20" height="20" color="#3B82F6"/>

  <!-- Schedule -->
  <rect x="12" y="112" width="32" height="32" rx="8" fill="transparent"/>
  <use href="#icon-calendar" x="18" y="118" width="20" height="20" color="#64748B"/>

  <!-- Reports -->
  <rect x="12" y="156" width="32" height="32" rx="8" fill="transparent"/>
  <use href="#icon-bar-chart" x="18" y="162" width="20" height="20" color="#64748B"/>

  <!-- AI Chat -->
  <rect x="12" y="200" width="32" height="32" rx="8" fill="transparent"/>
  <use href="#icon-message-circle" x="18" y="206" width="20" height="20" color="#64748B"/>

  <!-- Alerts with badge -->
  <rect x="12" y="244" width="32" height="32" rx="8" fill="transparent"/>
  <use href="#icon-alert-triangle" x="18" y="250" width="20" height="20" color="#64748B"/>
  <circle cx="40" cy="248" r="8" fill="#EF4444"/>
  <text x="40" y="252" font-family="-apple-system, sans-serif" font-size="9" fill="#FFFFFF" text-anchor="middle" font-weight="600">2</text>

  <!-- Divider -->
  <line x1="16" y1="294" x2="40" y2="294" stroke="#E2E8F0" stroke-width="1"/>

  <!-- Settings - bottom -->
  <rect x="12" y="728" width="32" height="32" rx="8" fill="transparent"/>
  <use href="#icon-settings" x="18" y="734" width="20" height="20" color="#64748B"/>

  <!-- User avatar - bottom -->
  <circle cx="28" cy="780" r="14" fill="#DBEAFE" stroke="#BFDBFE" stroke-width="1"/>
  <text x="28" y="785" font-family="-apple-system, sans-serif" font-size="10" font-weight="600" fill="#1E40AF" text-anchor="middle">MJ</text>

  <!-- ====== TOP BAR ====== -->
  <rect x="56" y="0" width="1224" height="56" fill="#FAFAF8"/>
  <line x1="56" y1="56" x2="1280" y2="56" stroke="#E2E8F0" stroke-width="0.5"/>

  <!-- Notification bell -->
  <use href="#icon-bell" x="1140" y="18" width="20" height="20" color="#475569"/>
  <circle cx="1156" cy="22" r="7" fill="#EF4444"/>
  <text x="1156" y="25" font-family="-apple-system, sans-serif" font-size="9" fill="#FFFFFF" text-anchor="middle" font-weight="600">2</text>

  <!-- Elder pill -->
  <rect x="1180" y="14" width="80" height="28" rx="14" fill="#EFF6FF" stroke="#BFDBFE" stroke-width="1"/>
  <circle cx="1196" cy="28" r="10" fill="#3B82F6"/>
  <text x="1196" y="32" font-family="-apple-system, sans-serif" font-size="9" font-weight="600" fill="#FFFFFF" text-anchor="middle">RL</text>
  <text x="1232" y="33" font-family="-apple-system, sans-serif" font-size="12" font-weight="500" fill="#1E40AF" text-anchor="middle">Rod</text>
  <!-- Chevron -->
  <path d="M1250 26 l3 3 l3-3" fill="none" stroke="#1E40AF" stroke-width="1.5" stroke-linecap="round"/>

  <!-- ====== MAIN CONTENT - Centered ====== -->

  <!-- Greeting -->
  <text x="668" y="130" font-family="-apple-system, BlinkMacSystemFont, 'Segoe UI', sans-serif" font-size="30" font-weight="600" fill="#1E293B" text-anchor="middle">Good Morning, Maria</text>
  <text x="668" y="160" font-family="-apple-system, sans-serif" font-size="16" fill="#64748B" text-anchor="middle">Caring for Rod Laver · Morning Shift · Tuesday, Jan 22</text>

  <!-- ====== PRIORITY CARD ====== -->
  <rect x="418" y="192" width="500" height="120" rx="18" fill="#FFFFFF" stroke="#FCA5A5" stroke-width="1.5"/>

  <circle cx="444" cy="222" r="5" fill="#EF4444"/>
  <text x="458" y="226" font-family="-apple-system, sans-serif" font-size="12" font-weight="600" fill="#DC2626">OVERDUE — 15 minutes</text>

  <use href="#icon-pill" x="440" y="242" width="20" height="20" color="#1E40AF"/>
  <text x="468" y="258" font-family="-apple-system, sans-serif" font-size="18" font-weight="600" fill="#1E293B">Morning Medications</text>
  <text x="440" y="282" font-family="-apple-system, sans-serif" font-size="14" fill="#64748B">Lisinopril 10mg · Metformin 500mg</text>

  <!-- Buttons -->
  <rect x="440" y="292" width="140" height="12" rx="6" fill="#16A34A"/>
  <use href="#icon-check" x="454" y="293" width="10" height="10" color="#FFFFFF"/>
  <text x="510" y="302" font-family="-apple-system, sans-serif" font-size="10" font-weight="600" fill="#FFFFFF" text-anchor="middle">Given</text>

  <rect x="590" y="292" width="140" height="12" rx="6" fill="#FFFFFF" stroke="#DC2626" stroke-width="1"/>
  <use href="#icon-x" x="604" y="293" width="10" height="10" color="#DC2626"/>
  <text x="660" y="302" font-family="-apple-system, sans-serif" font-size="10" font-weight="500" fill="#DC2626" text-anchor="middle">Not given</text>

  <!-- ====== VOICE INPUT ====== -->
  <rect x="318" y="336" width="700" height="52" rx="26" fill="#FFFFFF" stroke="#CBD5E1" stroke-width="1.5"/>
  <text x="356" y="367" font-family="-apple-system, sans-serif" font-size="15" fill="#94A3B8">Say or type what happened... (e.g. "Rod took his morning meds")</text>

  <circle cx="990" cy="362" r="20" fill="#3B82F6"/>
  <use href="#icon-mic" x="980" y="352" width="20" height="20" color="#FFFFFF"/>

  <!-- ====== SUGGESTION CHIPS ====== -->
  <!-- Row 1 -->
  <rect x="438" y="410" width="155" height="38" rx="19" fill="#F8FAFC" stroke="#E2E8F0" stroke-width="1"/>
  <use href="#icon-pill" x="450" y="421" width="16" height="16" color="#475569"/>
  <text x="472" y="434" font-family="-apple-system, sans-serif" font-size="13" fill="#475569">Log medications</text>

  <rect x="601" y="410" width="130" height="38" rx="19" fill="#F8FAFC" stroke="#E2E8F0" stroke-width="1"/>
  <use href="#icon-utensils" x="613" y="421" width="16" height="16" color="#475569"/>
  <text x="635" y="434" font-family="-apple-system, sans-serif" font-size="13" fill="#475569">Log a meal</text>

  <rect x="739" y="410" width="145" height="38" rx="19" fill="#F8FAFC" stroke="#E2E8F0" stroke-width="1"/>
  <use href="#icon-leaf" x="751" y="421" width="16" height="16" color="#475569"/>
  <text x="773" y="434" font-family="-apple-system, sans-serif" font-size="13" fill="#475569">Supplements</text>

  <!-- Row 2 -->
  <rect x="468" y="456" width="130" height="38" rx="19" fill="#F8FAFC" stroke="#E2E8F0" stroke-width="1"/>
  <use href="#icon-file-text" x="480" y="467" width="16" height="16" color="#475569"/>
  <text x="502" y="480" font-family="-apple-system, sans-serif" font-size="13" fill="#475569">Add a note</text>

  <rect x="606" y="456" width="155" height="38" rx="19" fill="#F8FAFC" stroke="#E2E8F0" stroke-width="1"/>
  <use href="#icon-stethoscope" x="618" y="467" width="16" height="16" color="#475569"/>
  <text x="640" y="480" font-family="-apple-system, sans-serif" font-size="13" fill="#475569">Ask a question</text>

  <rect x="769" y="456" width="165" height="38" rx="19" fill="#FEF3C7" stroke="#FCD34D" stroke-width="1"/>
  <use href="#icon-alert-triangle" x="781" y="467" width="16" height="16" color="#92400E"/>
  <text x="803" y="480" font-family="-apple-system, sans-serif" font-size="13" fill="#92400E">2 alerts to review</text>

  <!-- ====== COMING UP ====== -->
  <text x="490" y="536" font-family="-apple-system, sans-serif" font-size="11" font-weight="600" fill="#94A3B8" letter-spacing="1">COMING UP</text>

  <rect x="490" y="550" width="360" height="120" rx="14" fill="#FFFFFF" stroke="#E2E8F0" stroke-width="1"/>

  <!-- Item 1 -->
  <circle cx="512" cy="578" r="4" fill="#3B82F6"/>
  <text x="528" y="582" font-family="-apple-system, sans-serif" font-size="14" fill="#1E293B">Log breakfast</text>
  <text x="822" y="582" font-family="-apple-system, sans-serif" font-size="12" fill="#94A3B8" text-anchor="end">When ready</text>
  <line x1="528" y1="596" x2="822" y2="596" stroke="#F1F5F9" stroke-width="1"/>

  <!-- Item 2 -->
  <circle cx="512" cy="618" r="4" fill="#94A3B8"/>
  <text x="528" y="622" font-family="-apple-system, sans-serif" font-size="14" fill="#1E293B">Vitamin D supplement</text>
  <text x="822" y="622" font-family="-apple-system, sans-serif" font-size="12" fill="#94A3B8" text-anchor="end">10:00 AM</text>
  <line x1="528" y1="636" x2="822" y2="636" stroke="#F1F5F9" stroke-width="1"/>

  <!-- Item 3 -->
  <circle cx="512" cy="654" r="4" fill="#94A3B8"/>
  <text x="528" y="658" font-family="-apple-system, sans-serif" font-size="14" fill="#1E293B">Afternoon medications</text>
  <text x="822" y="658" font-family="-apple-system, sans-serif" font-size="12" fill="#94A3B8" text-anchor="end">2:00 PM</text>

  <!-- ====== SHIFT PROGRESS - bottom left ====== -->
  <rect x="80" y="730" width="280" height="50" rx="12" fill="#FFFFFF" stroke="#E2E8F0" stroke-width="1"/>
  <text x="96" y="752" font-family="-apple-system, sans-serif" font-size="12" font-weight="500" fill="#1E293B">Shift Progress: 2 of 8 tasks</text>
  <rect x="96" y="764" width="248" height="5" rx="2.5" fill="#E2E8F0"/>
  <rect x="96" y="764" width="62" height="5" rx="2.5" fill="#3B82F6"/>
</svg>